<mxfile host="Electron" modified="2024-02-02T14:00:39.091Z" agent="Mozilla/5.0 (Windows NT 10.0; Win64; x64) AppleWebKit/537.36 (KHTML, like Gecko) draw.io/23.0.2 Chrome/120.0.6099.109 Electron/28.1.0 Safari/537.36" etag="4LhiqP5k9cbA0PHA47F0" version="23.0.2" type="device">
  <diagram name="PÃ¡gina-1" id="En0zh5TMipR6Auo7EhX6">
    <mxGraphModel dx="2261" dy="844" grid="1" gridSize="10" guides="1" tooltips="1" connect="1" arrows="1" fold="1" page="1" pageScale="1" pageWidth="827" pageHeight="1169" math="0" shadow="0">
      <root>
        <mxCell id="0" />
        <mxCell id="1" parent="0" />
        <mxCell id="TflRWpkOfV3KCFZFqnfJ-2" value="Activity" style="swimlane;fontStyle=1;align=center;verticalAlign=top;childLayout=stackLayout;horizontal=1;startSize=26;horizontalStack=0;resizeParent=1;resizeParentMax=0;resizeLast=0;collapsible=1;marginBottom=0;whiteSpace=wrap;html=1;" parent="1" vertex="1">
          <mxGeometry x="291" y="300" width="249" height="242" as="geometry" />
        </mxCell>
        <mxCell id="TflRWpkOfV3KCFZFqnfJ-8" value="+ _name: string" style="text;strokeColor=none;fillColor=none;align=left;verticalAlign=top;spacingLeft=4;spacingRight=4;overflow=hidden;rotatable=0;points=[[0,0.5],[1,0.5]];portConstraint=eastwest;whiteSpace=wrap;html=1;" parent="TflRWpkOfV3KCFZFqnfJ-2" vertex="1">
          <mxGeometry y="26" width="249" height="26" as="geometry" />
        </mxCell>
        <mxCell id="TflRWpkOfV3KCFZFqnfJ-7" value="&lt;span style=&quot;color: rgb(0, 0, 0); font-family: Helvetica; font-size: 12px; font-style: normal; font-variant-ligatures: normal; font-variant-caps: normal; font-weight: 400; letter-spacing: normal; orphans: 2; text-align: left; text-indent: 0px; text-transform: none; widows: 2; word-spacing: 0px; -webkit-text-stroke-width: 0px; background-color: rgb(251, 251, 251); text-decoration-thickness: initial; text-decoration-style: initial; text-decoration-color: initial; float: none; display: inline !important;&quot;&gt;+ _description: string&lt;/span&gt;&lt;br&gt;" style="text;strokeColor=none;fillColor=none;align=left;verticalAlign=top;spacingLeft=4;spacingRight=4;overflow=hidden;rotatable=0;points=[[0,0.5],[1,0.5]];portConstraint=eastwest;whiteSpace=wrap;html=1;" parent="TflRWpkOfV3KCFZFqnfJ-2" vertex="1">
          <mxGeometry y="52" width="249" height="26" as="geometry" />
        </mxCell>
        <mxCell id="TflRWpkOfV3KCFZFqnfJ-6" value="&lt;span style=&quot;color: rgb(0, 0, 0); font-family: Helvetica; font-size: 12px; font-style: normal; font-variant-ligatures: normal; font-variant-caps: normal; font-weight: 400; letter-spacing: normal; orphans: 2; text-align: left; text-indent: 0px; text-transform: none; widows: 2; word-spacing: 0px; -webkit-text-stroke-width: 0px; background-color: rgb(251, 251, 251); text-decoration-thickness: initial; text-decoration-style: initial; text-decoration-color: initial; float: none; display: inline !important;&quot;&gt;+ _duration: int&lt;/span&gt;&lt;br&gt;" style="text;strokeColor=none;fillColor=none;align=left;verticalAlign=top;spacingLeft=4;spacingRight=4;overflow=hidden;rotatable=0;points=[[0,0.5],[1,0.5]];portConstraint=eastwest;whiteSpace=wrap;html=1;" parent="TflRWpkOfV3KCFZFqnfJ-2" vertex="1">
          <mxGeometry y="78" width="249" height="26" as="geometry" />
        </mxCell>
        <mxCell id="TflRWpkOfV3KCFZFqnfJ-4" value="" style="line;strokeWidth=1;fillColor=none;align=left;verticalAlign=middle;spacingTop=-1;spacingLeft=3;spacingRight=3;rotatable=0;labelPosition=right;points=[];portConstraint=eastwest;strokeColor=inherit;" parent="TflRWpkOfV3KCFZFqnfJ-2" vertex="1">
          <mxGeometry y="104" width="249" height="8" as="geometry" />
        </mxCell>
        <mxCell id="lzVltO1jM36C_09NWcoM-1" value="Activity()" style="text;strokeColor=none;fillColor=none;align=left;verticalAlign=top;spacingLeft=4;spacingRight=4;overflow=hidden;rotatable=0;points=[[0,0.5],[1,0.5]];portConstraint=eastwest;whiteSpace=wrap;html=1;" vertex="1" parent="TflRWpkOfV3KCFZFqnfJ-2">
          <mxGeometry y="112" width="249" height="26" as="geometry" />
        </mxCell>
        <mxCell id="TflRWpkOfV3KCFZFqnfJ-5" value="DisplayStartingMessage(): void" style="text;strokeColor=none;fillColor=none;align=left;verticalAlign=top;spacingLeft=4;spacingRight=4;overflow=hidden;rotatable=0;points=[[0,0.5],[1,0.5]];portConstraint=eastwest;whiteSpace=wrap;html=1;" parent="TflRWpkOfV3KCFZFqnfJ-2" vertex="1">
          <mxGeometry y="138" width="249" height="26" as="geometry" />
        </mxCell>
        <mxCell id="TflRWpkOfV3KCFZFqnfJ-50" value="ShowAnimation(seconds : int): void" style="text;strokeColor=none;fillColor=none;align=left;verticalAlign=top;spacingLeft=4;spacingRight=4;overflow=hidden;rotatable=0;points=[[0,0.5],[1,0.5]];portConstraint=eastwest;whiteSpace=wrap;html=1;" parent="TflRWpkOfV3KCFZFqnfJ-2" vertex="1">
          <mxGeometry y="164" width="249" height="26" as="geometry" />
        </mxCell>
        <mxCell id="TflRWpkOfV3KCFZFqnfJ-19" value="ShowCountdownTimer(seconds: int):&amp;nbsp; void" style="text;strokeColor=none;fillColor=none;align=left;verticalAlign=top;spacingLeft=4;spacingRight=4;overflow=hidden;rotatable=0;points=[[0,0.5],[1,0.5]];portConstraint=eastwest;whiteSpace=wrap;html=1;" parent="TflRWpkOfV3KCFZFqnfJ-2" vertex="1">
          <mxGeometry y="190" width="249" height="26" as="geometry" />
        </mxCell>
        <mxCell id="TflRWpkOfV3KCFZFqnfJ-9" value="EndingMessage(): void" style="text;strokeColor=none;fillColor=none;align=left;verticalAlign=top;spacingLeft=4;spacingRight=4;overflow=hidden;rotatable=0;points=[[0,0.5],[1,0.5]];portConstraint=eastwest;whiteSpace=wrap;html=1;" parent="TflRWpkOfV3KCFZFqnfJ-2" vertex="1">
          <mxGeometry y="216" width="249" height="26" as="geometry" />
        </mxCell>
        <mxCell id="TflRWpkOfV3KCFZFqnfJ-11" value="BreathingActivity" style="swimlane;fontStyle=1;align=center;verticalAlign=top;childLayout=stackLayout;horizontal=1;startSize=26;horizontalStack=0;resizeParent=1;resizeParentMax=0;resizeLast=0;collapsible=1;marginBottom=0;whiteSpace=wrap;html=1;" parent="1" vertex="1">
          <mxGeometry x="80" y="610" width="160" height="104" as="geometry" />
        </mxCell>
        <mxCell id="TflRWpkOfV3KCFZFqnfJ-16" value="" style="line;strokeWidth=1;fillColor=none;align=left;verticalAlign=middle;spacingTop=-1;spacingLeft=3;spacingRight=3;rotatable=0;labelPosition=right;points=[];portConstraint=eastwest;strokeColor=inherit;" parent="TflRWpkOfV3KCFZFqnfJ-11" vertex="1">
          <mxGeometry y="26" width="160" height="8" as="geometry" />
        </mxCell>
        <mxCell id="TflRWpkOfV3KCFZFqnfJ-17" value="Breathaction(): (breath in breath out...." style="text;strokeColor=none;fillColor=none;align=left;verticalAlign=top;spacingLeft=4;spacingRight=4;overflow=hidden;rotatable=0;points=[[0,0.5],[1,0.5]];portConstraint=eastwest;whiteSpace=wrap;html=1;" parent="TflRWpkOfV3KCFZFqnfJ-11" vertex="1">
          <mxGeometry y="34" width="160" height="42" as="geometry" />
        </mxCell>
        <mxCell id="lzVltO1jM36C_09NWcoM-3" value="Run() : void" style="text;strokeColor=none;fillColor=none;align=left;verticalAlign=top;spacingLeft=4;spacingRight=4;overflow=hidden;rotatable=0;points=[[0,0.5],[1,0.5]];portConstraint=eastwest;whiteSpace=wrap;html=1;" vertex="1" parent="TflRWpkOfV3KCFZFqnfJ-11">
          <mxGeometry y="76" width="160" height="28" as="geometry" />
        </mxCell>
        <mxCell id="TflRWpkOfV3KCFZFqnfJ-30" style="edgeStyle=orthogonalEdgeStyle;rounded=0;orthogonalLoop=1;jettySize=auto;html=1;" parent="1" source="TflRWpkOfV3KCFZFqnfJ-20" edge="1">
          <mxGeometry relative="1" as="geometry">
            <mxPoint x="414" y="560" as="targetPoint" />
          </mxGeometry>
        </mxCell>
        <mxCell id="TflRWpkOfV3KCFZFqnfJ-20" value="ReflectionActivity" style="swimlane;fontStyle=1;align=center;verticalAlign=top;childLayout=stackLayout;horizontal=1;startSize=26;horizontalStack=0;resizeParent=1;resizeParentMax=0;resizeLast=0;collapsible=1;marginBottom=0;whiteSpace=wrap;html=1;" parent="1" vertex="1">
          <mxGeometry x="334" y="610" width="160" height="272" as="geometry" />
        </mxCell>
        <mxCell id="TflRWpkOfV3KCFZFqnfJ-22" value="&lt;span style=&quot;color: rgb(0, 0, 0); font-family: Helvetica; font-size: 12px; font-style: normal; font-variant-ligatures: normal; font-variant-caps: normal; font-weight: 400; letter-spacing: normal; orphans: 2; text-align: left; text-indent: 0px; text-transform: none; widows: 2; word-spacing: 0px; -webkit-text-stroke-width: 0px; background-color: rgb(251, 251, 251); text-decoration-thickness: initial; text-decoration-style: initial; text-decoration-color: initial; float: none; display: inline !important;&quot;&gt;_prompts : List&amp;lt;string&amp;gt;&lt;/span&gt;" style="text;strokeColor=none;fillColor=none;align=left;verticalAlign=top;spacingLeft=4;spacingRight=4;overflow=hidden;rotatable=0;points=[[0,0.5],[1,0.5]];portConstraint=eastwest;whiteSpace=wrap;html=1;" parent="TflRWpkOfV3KCFZFqnfJ-20" vertex="1">
          <mxGeometry y="26" width="160" height="26" as="geometry" />
        </mxCell>
        <mxCell id="lzVltO1jM36C_09NWcoM-4" value="_questions : List&amp;lt;string&amp;gt;" style="text;strokeColor=none;fillColor=none;align=left;verticalAlign=top;spacingLeft=4;spacingRight=4;overflow=hidden;rotatable=0;points=[[0,0.5],[1,0.5]];portConstraint=eastwest;whiteSpace=wrap;html=1;" vertex="1" parent="TflRWpkOfV3KCFZFqnfJ-20">
          <mxGeometry y="52" width="160" height="26" as="geometry" />
        </mxCell>
        <mxCell id="TflRWpkOfV3KCFZFqnfJ-25" value="" style="line;strokeWidth=1;fillColor=none;align=left;verticalAlign=middle;spacingTop=-1;spacingLeft=3;spacingRight=3;rotatable=0;labelPosition=right;points=[];portConstraint=eastwest;strokeColor=inherit;" parent="TflRWpkOfV3KCFZFqnfJ-20" vertex="1">
          <mxGeometry y="78" width="160" height="8" as="geometry" />
        </mxCell>
        <mxCell id="lzVltO1jM36C_09NWcoM-5" value="ReflectingActivity()" style="text;strokeColor=none;fillColor=none;align=left;verticalAlign=top;spacingLeft=4;spacingRight=4;overflow=hidden;rotatable=0;points=[[0,0.5],[1,0.5]];portConstraint=eastwest;whiteSpace=wrap;html=1;" vertex="1" parent="TflRWpkOfV3KCFZFqnfJ-20">
          <mxGeometry y="86" width="160" height="24" as="geometry" />
        </mxCell>
        <mxCell id="lzVltO1jM36C_09NWcoM-7" value="Run() : void" style="text;strokeColor=none;fillColor=none;align=left;verticalAlign=top;spacingLeft=4;spacingRight=4;overflow=hidden;rotatable=0;points=[[0,0.5],[1,0.5]];portConstraint=eastwest;whiteSpace=wrap;html=1;" vertex="1" parent="TflRWpkOfV3KCFZFqnfJ-20">
          <mxGeometry y="110" width="160" height="30" as="geometry" />
        </mxCell>
        <mxCell id="TflRWpkOfV3KCFZFqnfJ-33" value="GetRandomPrompt(): string" style="text;strokeColor=none;fillColor=none;align=left;verticalAlign=top;spacingLeft=4;spacingRight=4;overflow=hidden;rotatable=0;points=[[0,0.5],[1,0.5]];portConstraint=eastwest;whiteSpace=wrap;html=1;" parent="TflRWpkOfV3KCFZFqnfJ-20" vertex="1">
          <mxGeometry y="140" width="160" height="26" as="geometry" />
        </mxCell>
        <mxCell id="TflRWpkOfV3KCFZFqnfJ-34" value="GetRandomQuestion(): string" style="text;strokeColor=none;fillColor=none;align=left;verticalAlign=top;spacingLeft=4;spacingRight=4;overflow=hidden;rotatable=0;points=[[0,0.5],[1,0.5]];portConstraint=eastwest;whiteSpace=wrap;html=1;" parent="TflRWpkOfV3KCFZFqnfJ-20" vertex="1">
          <mxGeometry y="166" width="160" height="42" as="geometry" />
        </mxCell>
        <mxCell id="lzVltO1jM36C_09NWcoM-8" value="DisplayPrompt() : void" style="text;strokeColor=none;fillColor=none;align=left;verticalAlign=top;spacingLeft=4;spacingRight=4;overflow=hidden;rotatable=0;points=[[0,0.5],[1,0.5]];portConstraint=eastwest;whiteSpace=wrap;html=1;" vertex="1" parent="TflRWpkOfV3KCFZFqnfJ-20">
          <mxGeometry y="208" width="160" height="32" as="geometry" />
        </mxCell>
        <mxCell id="lzVltO1jM36C_09NWcoM-9" value="DisplayQuestions() : void" style="text;strokeColor=none;fillColor=none;align=left;verticalAlign=top;spacingLeft=4;spacingRight=4;overflow=hidden;rotatable=0;points=[[0,0.5],[1,0.5]];portConstraint=eastwest;whiteSpace=wrap;html=1;" vertex="1" parent="TflRWpkOfV3KCFZFqnfJ-20">
          <mxGeometry y="240" width="160" height="32" as="geometry" />
        </mxCell>
        <mxCell id="TflRWpkOfV3KCFZFqnfJ-28" style="edgeStyle=orthogonalEdgeStyle;rounded=0;orthogonalLoop=1;jettySize=auto;html=1;entryX=0;entryY=0.5;entryDx=0;entryDy=0;" parent="1" source="TflRWpkOfV3KCFZFqnfJ-27" edge="1">
          <mxGeometry relative="1" as="geometry">
            <mxPoint x="80" y="649" as="targetPoint" />
          </mxGeometry>
        </mxCell>
        <mxCell id="TflRWpkOfV3KCFZFqnfJ-27" value="&lt;em style=&quot;font-family: Montserrat, Helvetica, sans-serif; font-size: 11px; text-align: left;&quot;&gt;&quot;This activity will help you relax by &lt;br style=&quot;font-size: 11px;&quot;&gt;walking your through breathing&lt;br style=&quot;font-size: 11px;&quot;&gt;&amp;nbsp;in and out slowly. Clear your mind &lt;br style=&quot;font-size: 11px;&quot;&gt;and focus on your breathing.&quot;&lt;/em&gt;" style="text;html=1;align=center;verticalAlign=middle;resizable=0;points=[];autosize=1;strokeColor=#6c8ebf;fillColor=#dae8fc;fontSize=11;" parent="1" vertex="1">
          <mxGeometry x="-210" y="610" width="190" height="70" as="geometry" />
        </mxCell>
        <mxCell id="TflRWpkOfV3KCFZFqnfJ-29" style="edgeStyle=orthogonalEdgeStyle;rounded=0;orthogonalLoop=1;jettySize=auto;html=1;entryX=0.475;entryY=0.962;entryDx=0;entryDy=0;entryPerimeter=0;" parent="1" source="TflRWpkOfV3KCFZFqnfJ-11" target="TflRWpkOfV3KCFZFqnfJ-9" edge="1">
          <mxGeometry relative="1" as="geometry" />
        </mxCell>
        <mxCell id="TflRWpkOfV3KCFZFqnfJ-32" style="edgeStyle=orthogonalEdgeStyle;rounded=0;orthogonalLoop=1;jettySize=auto;html=1;entryX=0;entryY=0.5;entryDx=0;entryDy=0;" parent="1" source="TflRWpkOfV3KCFZFqnfJ-31" target="TflRWpkOfV3KCFZFqnfJ-22" edge="1">
          <mxGeometry relative="1" as="geometry">
            <Array as="points">
              <mxPoint x="270" y="649" />
            </Array>
          </mxGeometry>
        </mxCell>
        <mxCell id="TflRWpkOfV3KCFZFqnfJ-31" value="&lt;em style=&quot;font-family: Montserrat, Helvetica, sans-serif; font-size: 11px; text-align: left;&quot;&gt;&quot;This activity will help you reflect on times&lt;br&gt;&amp;nbsp;in your life when you have shown strength &lt;br&gt;and resilience. This will help you recognize&lt;br&gt;&amp;nbsp;the power you have and how you can&lt;br&gt;&amp;nbsp;use it in other aspects of your life.&quot;&lt;/em&gt;" style="text;html=1;align=center;verticalAlign=middle;resizable=0;points=[];autosize=1;strokeColor=#6c8ebf;fillColor=#dae8fc;fontSize=11;" parent="1" vertex="1">
          <mxGeometry x="-50" y="760" width="230" height="80" as="geometry" />
        </mxCell>
        <mxCell id="TflRWpkOfV3KCFZFqnfJ-36" style="edgeStyle=orthogonalEdgeStyle;rounded=0;orthogonalLoop=1;jettySize=auto;html=1;entryX=1;entryY=0.5;entryDx=0;entryDy=0;" parent="1" source="TflRWpkOfV3KCFZFqnfJ-35" target="TflRWpkOfV3KCFZFqnfJ-33" edge="1">
          <mxGeometry relative="1" as="geometry">
            <Array as="points">
              <mxPoint x="285" y="900" />
              <mxPoint x="514" y="900" />
              <mxPoint x="514" y="763" />
            </Array>
          </mxGeometry>
        </mxCell>
        <mxCell id="TflRWpkOfV3KCFZFqnfJ-35" value="&lt;ul style=&quot;font-family: Montserrat, Helvetica, sans-serif; font-size: 11px; text-align: left;&quot;&gt;&lt;li style=&quot;margin-bottom: 0.5rem; margin-top: 0.5rem; font-size: 11px;&quot;&gt;&lt;em style=&quot;font-size: 11px;&quot;&gt;Think of a time when you stood up for someone else.&lt;/em&gt;&lt;/li&gt;&lt;li style=&quot;margin-bottom: 0.5rem; font-size: 11px;&quot;&gt;&lt;em style=&quot;font-size: 11px;&quot;&gt;Think of a time when you did something really difficult.&lt;/em&gt;&lt;/li&gt;&lt;li style=&quot;margin-bottom: 0.5rem; font-size: 11px;&quot;&gt;&lt;em style=&quot;font-size: 11px;&quot;&gt;Think of a time when you helped someone in need.&lt;/em&gt;&lt;/li&gt;&lt;li style=&quot;margin-bottom: 0.5rem; font-size: 11px;&quot;&gt;&lt;em style=&quot;font-size: 11px;&quot;&gt;Think of a time when you did something truly selfless.&lt;/em&gt;&lt;/li&gt;&lt;/ul&gt;" style="text;html=1;align=center;verticalAlign=middle;resizable=0;points=[];autosize=1;strokeColor=#9673a6;fillColor=#e1d5e7;fontSize=11;" parent="1" vertex="1">
          <mxGeometry x="140" y="930" width="330" height="110" as="geometry" />
        </mxCell>
        <mxCell id="TflRWpkOfV3KCFZFqnfJ-38" style="edgeStyle=orthogonalEdgeStyle;rounded=0;orthogonalLoop=1;jettySize=auto;html=1;entryX=1;entryY=0.5;entryDx=0;entryDy=0;" parent="1" source="TflRWpkOfV3KCFZFqnfJ-37" target="TflRWpkOfV3KCFZFqnfJ-34" edge="1">
          <mxGeometry relative="1" as="geometry">
            <Array as="points">
              <mxPoint x="525" y="797" />
            </Array>
          </mxGeometry>
        </mxCell>
        <mxCell id="TflRWpkOfV3KCFZFqnfJ-37" value="&lt;ul style=&quot;font-family: Montserrat, Helvetica, sans-serif; font-size: 11px; text-align: left;&quot;&gt;&lt;li style=&quot;margin-bottom: 0.5rem; margin-top: 0.5rem; font-size: 11px;&quot;&gt;&lt;em style=&quot;font-size: 11px;&quot;&gt;Why was this experience meaningful to you?&lt;/em&gt;&lt;/li&gt;&lt;li style=&quot;margin-bottom: 0.5rem; font-size: 11px;&quot;&gt;&lt;em style=&quot;font-size: 11px;&quot;&gt;Have you ever done anything like this before?&lt;/em&gt;&lt;/li&gt;&lt;li style=&quot;margin-bottom: 0.5rem; font-size: 11px;&quot;&gt;&lt;em style=&quot;font-size: 11px;&quot;&gt;How did you get started?&lt;/em&gt;&lt;/li&gt;&lt;li style=&quot;margin-bottom: 0.5rem; font-size: 11px;&quot;&gt;&lt;em style=&quot;font-size: 11px;&quot;&gt;How did you feel when it was complete?&lt;/em&gt;&lt;/li&gt;&lt;li style=&quot;margin-bottom: 0.5rem; font-size: 11px;&quot;&gt;&lt;em style=&quot;font-size: 11px;&quot;&gt;What made this time different than other times when you were not as successful?&lt;/em&gt;&lt;/li&gt;&lt;li style=&quot;margin-bottom: 0.5rem; font-size: 11px;&quot;&gt;&lt;em style=&quot;font-size: 11px;&quot;&gt;What is your favorite thing about this experience?&lt;/em&gt;&lt;/li&gt;&lt;li style=&quot;margin-bottom: 0.5rem; font-size: 11px;&quot;&gt;&lt;em style=&quot;font-size: 11px;&quot;&gt;What could you learn from this experience that applies to other situations?&lt;/em&gt;&lt;/li&gt;&lt;li style=&quot;margin-bottom: 0.5rem; font-size: 11px;&quot;&gt;&lt;em style=&quot;font-size: 11px;&quot;&gt;What did you learn about yourself through this experience?&lt;/em&gt;&lt;/li&gt;&lt;li style=&quot;margin-bottom: 0.5rem; font-size: 11px;&quot;&gt;&lt;em style=&quot;font-size: 11px;&quot;&gt;How can you keep this experience in mind in the future?&lt;/em&gt;&lt;/li&gt;&lt;/ul&gt;" style="text;html=1;align=center;verticalAlign=middle;resizable=0;points=[];autosize=1;strokeColor=#82b366;fillColor=#d5e8d4;fontSize=11;" parent="1" vertex="1">
          <mxGeometry x="70" y="1060" width="460" height="220" as="geometry" />
        </mxCell>
        <mxCell id="TflRWpkOfV3KCFZFqnfJ-39" value="ListingActivity" style="swimlane;fontStyle=1;align=center;verticalAlign=top;childLayout=stackLayout;horizontal=1;startSize=26;horizontalStack=0;resizeParent=1;resizeParentMax=0;resizeLast=0;collapsible=1;marginBottom=0;whiteSpace=wrap;html=1;" parent="1" vertex="1">
          <mxGeometry x="570" y="610" width="180" height="220" as="geometry" />
        </mxCell>
        <mxCell id="TflRWpkOfV3KCFZFqnfJ-40" value="&lt;span style=&quot;color: rgb(0, 0, 0); font-family: Helvetica; font-size: 12px; font-style: normal; font-variant-ligatures: normal; font-variant-caps: normal; font-weight: 400; letter-spacing: normal; orphans: 2; text-align: left; text-indent: 0px; text-transform: none; widows: 2; word-spacing: 0px; -webkit-text-stroke-width: 0px; background-color: rgb(251, 251, 251); text-decoration-thickness: initial; text-decoration-style: initial; text-decoration-color: initial; float: none; display: inline !important;&quot;&gt;_ count : int&lt;/span&gt;" style="text;strokeColor=none;fillColor=none;align=left;verticalAlign=top;spacingLeft=4;spacingRight=4;overflow=hidden;rotatable=0;points=[[0,0.5],[1,0.5]];portConstraint=eastwest;whiteSpace=wrap;html=1;" parent="TflRWpkOfV3KCFZFqnfJ-39" vertex="1">
          <mxGeometry y="26" width="180" height="26" as="geometry" />
        </mxCell>
        <mxCell id="lzVltO1jM36C_09NWcoM-10" value="_prompts : List&amp;lt;string&amp;gt;" style="text;strokeColor=none;fillColor=none;align=left;verticalAlign=top;spacingLeft=4;spacingRight=4;overflow=hidden;rotatable=0;points=[[0,0.5],[1,0.5]];portConstraint=eastwest;whiteSpace=wrap;html=1;" vertex="1" parent="TflRWpkOfV3KCFZFqnfJ-39">
          <mxGeometry y="52" width="180" height="26" as="geometry" />
        </mxCell>
        <mxCell id="TflRWpkOfV3KCFZFqnfJ-41" value="" style="line;strokeWidth=1;fillColor=none;align=left;verticalAlign=middle;spacingTop=-1;spacingLeft=3;spacingRight=3;rotatable=0;labelPosition=right;points=[];portConstraint=eastwest;strokeColor=inherit;" parent="TflRWpkOfV3KCFZFqnfJ-39" vertex="1">
          <mxGeometry y="78" width="180" height="8" as="geometry" />
        </mxCell>
        <mxCell id="lzVltO1jM36C_09NWcoM-11" value="ListingActivity()" style="text;strokeColor=none;fillColor=none;align=left;verticalAlign=top;spacingLeft=4;spacingRight=4;overflow=hidden;rotatable=0;points=[[0,0.5],[1,0.5]];portConstraint=eastwest;whiteSpace=wrap;html=1;" vertex="1" parent="TflRWpkOfV3KCFZFqnfJ-39">
          <mxGeometry y="86" width="180" height="24" as="geometry" />
        </mxCell>
        <mxCell id="lzVltO1jM36C_09NWcoM-12" value="Run() : void" style="text;strokeColor=none;fillColor=none;align=left;verticalAlign=top;spacingLeft=4;spacingRight=4;overflow=hidden;rotatable=0;points=[[0,0.5],[1,0.5]];portConstraint=eastwest;whiteSpace=wrap;html=1;" vertex="1" parent="TflRWpkOfV3KCFZFqnfJ-39">
          <mxGeometry y="110" width="180" height="24" as="geometry" />
        </mxCell>
        <mxCell id="TflRWpkOfV3KCFZFqnfJ-42" value="GetRandomPrompt(): string" style="text;strokeColor=none;fillColor=none;align=left;verticalAlign=top;spacingLeft=4;spacingRight=4;overflow=hidden;rotatable=0;points=[[0,0.5],[1,0.5]];portConstraint=eastwest;whiteSpace=wrap;html=1;" parent="TflRWpkOfV3KCFZFqnfJ-39" vertex="1">
          <mxGeometry y="134" width="180" height="26" as="geometry" />
        </mxCell>
        <mxCell id="lzVltO1jM36C_09NWcoM-13" value="GetListFromUser : List&amp;lt;string&amp;gt;" style="text;strokeColor=none;fillColor=none;align=left;verticalAlign=top;spacingLeft=4;spacingRight=4;overflow=hidden;rotatable=0;points=[[0,0.5],[1,0.5]];portConstraint=eastwest;whiteSpace=wrap;html=1;" vertex="1" parent="TflRWpkOfV3KCFZFqnfJ-39">
          <mxGeometry y="160" width="180" height="30" as="geometry" />
        </mxCell>
        <mxCell id="TflRWpkOfV3KCFZFqnfJ-43" value="DisplayNumberOfItems(): int" style="text;strokeColor=none;fillColor=none;align=left;verticalAlign=top;spacingLeft=4;spacingRight=4;overflow=hidden;rotatable=0;points=[[0,0.5],[1,0.5]];portConstraint=eastwest;whiteSpace=wrap;html=1;" parent="TflRWpkOfV3KCFZFqnfJ-39" vertex="1">
          <mxGeometry y="190" width="180" height="30" as="geometry" />
        </mxCell>
        <mxCell id="TflRWpkOfV3KCFZFqnfJ-46" style="edgeStyle=orthogonalEdgeStyle;rounded=0;orthogonalLoop=1;jettySize=auto;html=1;entryX=1;entryY=0.5;entryDx=0;entryDy=0;" parent="1" source="TflRWpkOfV3KCFZFqnfJ-45" target="TflRWpkOfV3KCFZFqnfJ-40" edge="1">
          <mxGeometry relative="1" as="geometry">
            <Array as="points">
              <mxPoint x="810" y="635" />
              <mxPoint x="810" y="650" />
            </Array>
          </mxGeometry>
        </mxCell>
        <mxCell id="TflRWpkOfV3KCFZFqnfJ-45" value="&lt;em style=&quot;font-family: Montserrat, Helvetica, sans-serif; font-size: 11px; text-align: left;&quot;&gt;&quot;This activity will help you reflect on the good &lt;br&gt;things in your life by having you list as many things&lt;br&gt;&amp;nbsp;as you can in a certain area.&quot;&lt;/em&gt;" style="text;html=1;align=center;verticalAlign=middle;resizable=0;points=[];autosize=1;strokeColor=#6c8ebf;fillColor=#dae8fc;fontSize=11;" parent="1" vertex="1">
          <mxGeometry x="870" y="610" width="270" height="50" as="geometry" />
        </mxCell>
        <mxCell id="TflRWpkOfV3KCFZFqnfJ-47" style="edgeStyle=orthogonalEdgeStyle;rounded=0;orthogonalLoop=1;jettySize=auto;html=1;entryX=0.544;entryY=1.038;entryDx=0;entryDy=0;entryPerimeter=0;" parent="1" source="TflRWpkOfV3KCFZFqnfJ-39" target="TflRWpkOfV3KCFZFqnfJ-9" edge="1">
          <mxGeometry relative="1" as="geometry" />
        </mxCell>
        <mxCell id="TflRWpkOfV3KCFZFqnfJ-49" style="edgeStyle=orthogonalEdgeStyle;rounded=0;orthogonalLoop=1;jettySize=auto;html=1;entryX=1;entryY=0.5;entryDx=0;entryDy=0;" parent="1" source="TflRWpkOfV3KCFZFqnfJ-48" target="TflRWpkOfV3KCFZFqnfJ-42" edge="1">
          <mxGeometry relative="1" as="geometry" />
        </mxCell>
        <mxCell id="TflRWpkOfV3KCFZFqnfJ-48" value="&lt;ul style=&quot;font-family: Montserrat, Helvetica, sans-serif; font-size: 11px; text-align: left;&quot;&gt;&lt;li style=&quot;margin-bottom: 0.5rem; margin-top: 0.5rem; font-size: 11px;&quot;&gt;&lt;em style=&quot;font-size: 11px;&quot;&gt;Who are people that you appreciate?&lt;/em&gt;&lt;/li&gt;&lt;li style=&quot;margin-bottom: 0.5rem; font-size: 11px;&quot;&gt;&lt;em style=&quot;font-size: 11px;&quot;&gt;What are personal strengths of yours?&lt;/em&gt;&lt;/li&gt;&lt;li style=&quot;margin-bottom: 0.5rem; font-size: 11px;&quot;&gt;&lt;em style=&quot;font-size: 11px;&quot;&gt;Who are people that you have helped this week?&lt;/em&gt;&lt;/li&gt;&lt;li style=&quot;margin-bottom: 0.5rem; font-size: 11px;&quot;&gt;&lt;em style=&quot;font-size: 11px;&quot;&gt;When have you felt the Holy Ghost this month?&lt;/em&gt;&lt;/li&gt;&lt;li style=&quot;margin-bottom: 0.5rem; font-size: 11px;&quot;&gt;&lt;em style=&quot;font-size: 11px;&quot;&gt;Who are some of your personal heroes?&lt;/em&gt;&lt;/li&gt;&lt;/ul&gt;" style="text;html=1;align=center;verticalAlign=middle;resizable=0;points=[];autosize=1;strokeColor=#9673a6;fillColor=#e1d5e7;fontSize=11;" parent="1" vertex="1">
          <mxGeometry x="820" y="700" width="300" height="130" as="geometry" />
        </mxCell>
      </root>
    </mxGraphModel>
  </diagram>
</mxfile>
